<?xml version="1.0" encoding="UTF-8"?>
<svg id="Layer_2" data-name="Layer 2" xmlns="http://www.w3.org/2000/svg" viewBox="0 0 1706.06 1341.87">
  <defs>
    <style>
      .cls-1 {
        fill: #fff;
        stroke: #000;
        stroke-miterlimit: 10;
        stroke-width: .13px;
      }
    </style>
  </defs>
  <g id="Layer_1-2" data-name="Layer 1">
    <g>
      <polygon class="cls-1" points="1146.75 202.63 1048.86 279.96 988.29 327.84 890.41 405.17 792.47 327.84 890.36 250.51 950.98 202.63 890.36 154.75 829.79 202.58 731.91 279.91 671.29 327.79 573.4 405.12 512.83 453.05 512.79 453.05 414.95 530.38 354.33 578.21 256.45 655.55 195.88 703.42 256.45 751.3 317.06 703.42 414.95 780.76 354.38 828.63 256.49 905.97 158.56 828.63 97.99 780.76 .11 703.42 97.99 626.09 158.56 578.21 256.45 500.88 317.06 453.05 414.95 375.67 475.52 327.79 573.45 250.46 634.02 202.63 731.91 125.3 792.47 77.42 890.36 .08 988.25 77.42 1048.86 125.3 1146.75 202.63"/>
      <polygon class="cls-1" points="1418.9 424.57 1321.01 501.86 1260.45 549.74 1162.51 627.07 1101.94 674.95 1004.06 752.28 943.49 800.16 845.56 877.49 784.99 925.37 687.1 1002.7 626.53 1050.58 528.65 1127.91 430.76 1050.58 370.14 1002.7 272.26 925.37 370.14 848.04 430.76 800.16 528.65 722.83 626.53 800.16 528.65 877.49 468.03 925.37 528.65 973.25 589.22 925.37 687.1 848.04 747.72 800.16 845.6 722.83 906.17 674.95 1004.06 597.62 1064.67 549.74 1162.56 472.4 1223.18 424.53 1162.56 376.65 1064.67 299.32 1162.51 222.03 1260.45 299.36 1321.01 347.24 1418.9 424.57"/>
      <path class="cls-1" d="M1705.96,643.2l-97.84,77.29-60.62,47.88-97.89,77.33-97.89-77.33,97.89-77.33,60.62-47.88-60.62-47.83-60.62,47.88-97.84,77.29-60.62,47.88-85.44,64.89,60.57,47.92,97.89,77.29-101.09,86.33-166.39-118.94-61.92,45.06-60.57,47.88-97.89,77.33-60.62,47.88,60.62,47.88,60.62-47.88,97.84-77.33,97.89,77.33-97.89,77.33-60.57,47.88-87.2,68.89c-6.27,4.95-15.11,4.95-21.38,0l-87.2-68.89-60.62-47.88-97.89-77.33,97.93-77.33,60.57-47.88,97.89-77.33,60.62-47.88,97.84-77.29,60.62-47.92,97.89-77.33,60.62-47.88,97.84-77.33,60.62-47.88,97.84-77.29,97.93,77.33,60.57,47.88,97.89,77.33Z"/>
    </g>
  </g>
</svg>